<svg xmlns="http://www.w3.org/2000/svg" width="64" height="64" viewBox="0 0 64 64" fill="none" stroke="#000000" stroke-width="2" stroke-linecap="round" stroke-linejoin="round">
  <!-- Panel body -->
  <rect x="6" y="18" width="52" height="28" rx="2"/>
  <!-- Row 1: 8 ports -->
  <rect x="10" y="24" width="5" height="5" rx="1"/>
  <rect x="17" y="24" width="5" height="5" rx="1"/>
  <rect x="24" y="24" width="5" height="5" rx="1"/>
  <rect x="31" y="24" width="5" height="5" rx="1"/>
  <rect x="38" y="24" width="5" height="5" rx="1"/>
  <rect x="45" y="24" width="5" height="5" rx="1"/>
  <!-- Row 2: 8 ports -->
  <rect x="10" y="33" width="5" height="5" rx="1"/>
  <rect x="17" y="33" width="5" height="5" rx="1"/>
  <rect x="24" y="33" width="5" height="5" rx="1"/>
  <rect x="31" y="33" width="5" height="5" rx="1"/>
  <rect x="38" y="33" width="5" height="5" rx="1"/>
  <rect x="45" y="33" width="5" height="5" rx="1"/>
  <!-- Cable management tray -->
  <line x1="6" y1="46" x2="58" y2="46"/>
</svg>
